<?xml version="1.0" encoding="UTF-8" standalone="no"?><svg xmlns="http://www.w3.org/2000/svg" xmlns:xlink="http://www.w3.org/1999/xlink" clip-rule="evenodd" stroke-miterlimit="10" viewBox="0 0 623 37"><desc>SVG generated by Keynote</desc><defs></defs><g transform="matrix(1.00, 0.00, -0.00, -1.00, 0.0, 37.0)"><text xml:space="preserve" font-family="ZapfDingbatsITC,Zapf Dingbats" font-size="19.2" fill="#919191" transform="matrix(1.00, 0.00, -0.00, -1.00, 0.0, 15.5)">â–</text><text xml:space="preserve" font-family="Palatino-Roman,Palatino" font-size="32.0" fill="#404040" transform="matrix(1.00, 0.00, -0.00, -1.00, 32.9, 10.4)">G</text><text xml:space="preserve" font-family="Palatino-Roman,Palatino" font-size="32.0" fill="#404040" transform="matrix(1.00, 0.00, -0.00, -1.00, 57.4, 10.4)">a</text><text xml:space="preserve" font-family="Palatino-Roman,Palatino" font-size="32.0" fill="#404040" transform="matrix(1.00, 0.00, -0.00, -1.00, 73.4, 10.4)">t</text><text xml:space="preserve" font-family="Palatino-Roman,Palatino" font-size="32.0" fill="#404040" transform="matrix(1.00, 0.00, -0.00, -1.00, 83.9, 10.4)">h</text><text xml:space="preserve" font-family="Palatino-Roman,Palatino" font-size="32.0" fill="#404040" transform="matrix(1.00, 0.00, -0.00, -1.00, 102.5, 10.4)">e</text><text xml:space="preserve" font-family="Palatino-Roman,Palatino" font-size="32.0" fill="#404040" transform="matrix(1.00, 0.00, -0.00, -1.00, 117.9, 10.4)">r</text><text xml:space="preserve" font-family="Palatino-Roman,Palatino" font-size="32.0" fill="#404040" transform="matrix(1.00, 0.00, -0.00, -1.00, 130.5, 10.4)"> </text><text xml:space="preserve" font-family="Palatino-Roman,Palatino" font-size="32.0" fill="#404040" transform="matrix(1.00, 0.00, -0.00, -1.00, 138.5, 10.4)">p</text><text xml:space="preserve" font-family="Palatino-Roman,Palatino" font-size="32.0" fill="#404040" transform="matrix(1.00, 0.00, -0.00, -1.00, 157.8, 10.4)">u</text><text xml:space="preserve" font-family="Palatino-Roman,Palatino" font-size="32.0" fill="#404040" transform="matrix(1.00, 0.00, -0.00, -1.00, 177.1, 10.4)">l</text><text xml:space="preserve" font-family="Palatino-Roman,Palatino" font-size="32.0" fill="#404040" transform="matrix(1.00, 0.00, -0.00, -1.00, 186.4, 10.4)">l</text><text xml:space="preserve" font-family="Palatino-Roman,Palatino" font-size="32.0" fill="#404040" transform="matrix(1.00, 0.00, -0.00, -1.00, 195.8, 10.4)"> </text><text xml:space="preserve" font-family="Palatino-Roman,Palatino" font-size="32.0" fill="#404040" transform="matrix(1.00, 0.00, -0.00, -1.00, 203.8, 10.4)">r</text><text xml:space="preserve" font-family="Palatino-Roman,Palatino" font-size="32.0" fill="#404040" transform="matrix(1.00, 0.00, -0.00, -1.00, 215.9, 10.4)">e</text><text xml:space="preserve" font-family="Palatino-Roman,Palatino" font-size="32.0" fill="#404040" transform="matrix(1.00, 0.00, -0.00, -1.00, 231.2, 10.4)">q</text><text xml:space="preserve" font-family="Palatino-Roman,Palatino" font-size="32.0" fill="#404040" transform="matrix(1.00, 0.00, -0.00, -1.00, 249.2, 10.4)">u</text><text xml:space="preserve" font-family="Palatino-Roman,Palatino" font-size="32.0" fill="#404040" transform="matrix(1.00, 0.00, -0.00, -1.00, 268.5, 10.4)">e</text><text xml:space="preserve" font-family="Palatino-Roman,Palatino" font-size="32.0" fill="#404040" transform="matrix(1.00, 0.00, -0.00, -1.00, 283.8, 10.4)">s</text><text xml:space="preserve" font-family="Palatino-Roman,Palatino" font-size="32.0" fill="#404040" transform="matrix(1.00, 0.00, -0.00, -1.00, 297.4, 10.4)">t</text><text xml:space="preserve" font-family="Palatino-Roman,Palatino" font-size="32.0" fill="#404040" transform="matrix(1.00, 0.00, -0.00, -1.00, 307.9, 10.4)"> </text><text xml:space="preserve" font-family="Palatino-Roman,Palatino" font-size="32.0" fill="#404040" transform="matrix(1.00, 0.00, -0.00, -1.00, 315.9, 10.4)">(</text><text xml:space="preserve" font-family="Palatino-Roman,Palatino" font-size="32.0" fill="#404040" transform="matrix(1.00, 0.00, -0.00, -1.00, 326.5, 10.4)">G</text><text xml:space="preserve" font-family="Palatino-Roman,Palatino" font-size="32.0" fill="#404040" transform="matrix(1.00, 0.00, -0.00, -1.00, 351.0, 10.4)">i</text><text xml:space="preserve" font-family="Palatino-Roman,Palatino" font-size="32.0" fill="#404040" transform="matrix(1.00, 0.00, -0.00, -1.00, 360.3, 10.4)">t</text><text xml:space="preserve" font-family="Palatino-Roman,Palatino" font-size="32.0" fill="#404040" transform="matrix(1.00, 0.00, -0.00, -1.00, 370.8, 10.4)">H</text><text xml:space="preserve" font-family="Palatino-Roman,Palatino" font-size="32.0" fill="#404040" transform="matrix(1.00, 0.00, -0.00, -1.00, 397.4, 10.4)">u</text><text xml:space="preserve" font-family="Palatino-Roman,Palatino" font-size="32.0" fill="#404040" transform="matrix(1.00, 0.00, -0.00, -1.00, 416.8, 10.4)">b</text><text xml:space="preserve" font-family="Palatino-Roman,Palatino" font-size="32.0" fill="#404040" transform="matrix(1.00, 0.00, -0.00, -1.00, 434.5, 10.4)"> </text><text xml:space="preserve" font-family="Palatino-Roman,Palatino" font-size="32.0" fill="#404040" transform="matrix(1.00, 0.00, -0.00, -1.00, 442.5, 10.4)">p</text><text xml:space="preserve" font-family="Palatino-Roman,Palatino" font-size="32.0" fill="#404040" transform="matrix(1.00, 0.00, -0.00, -1.00, 461.8, 10.4)">u</text><text xml:space="preserve" font-family="Palatino-Roman,Palatino" font-size="32.0" fill="#404040" transform="matrix(1.00, 0.00, -0.00, -1.00, 481.1, 10.4)">l</text><text xml:space="preserve" font-family="Palatino-Roman,Palatino" font-size="32.0" fill="#404040" transform="matrix(1.00, 0.00, -0.00, -1.00, 490.4, 10.4)">l</text><text xml:space="preserve" font-family="Palatino-Roman,Palatino" font-size="32.0" fill="#404040" transform="matrix(1.00, 0.00, -0.00, -1.00, 499.7, 10.4)"> </text><text xml:space="preserve" font-family="Palatino-Roman,Palatino" font-size="32.0" fill="#404040" transform="matrix(1.00, 0.00, -0.00, -1.00, 507.7, 10.4)">r</text><text xml:space="preserve" font-family="Palatino-Roman,Palatino" font-size="32.0" fill="#404040" transform="matrix(1.00, 0.00, -0.00, -1.00, 519.8, 10.4)">e</text><text xml:space="preserve" font-family="Palatino-Roman,Palatino" font-size="32.0" fill="#404040" transform="matrix(1.00, 0.00, -0.00, -1.00, 535.2, 10.4)">q</text><text xml:space="preserve" font-family="Palatino-Roman,Palatino" font-size="32.0" fill="#404040" transform="matrix(1.00, 0.00, -0.00, -1.00, 553.1, 10.4)">u</text><text xml:space="preserve" font-family="Palatino-Roman,Palatino" font-size="32.0" fill="#404040" transform="matrix(1.00, 0.00, -0.00, -1.00, 572.4, 10.4)">e</text><text xml:space="preserve" font-family="Palatino-Roman,Palatino" font-size="32.0" fill="#404040" transform="matrix(1.00, 0.00, -0.00, -1.00, 587.8, 10.4)">s</text><text xml:space="preserve" font-family="Palatino-Roman,Palatino" font-size="32.0" fill="#404040" transform="matrix(1.00, 0.00, -0.00, -1.00, 601.4, 10.4)">t</text><text xml:space="preserve" font-family="Palatino-Roman,Palatino" font-size="32.0" fill="#404040" transform="matrix(1.00, 0.00, -0.00, -1.00, 611.8, 10.4)">)</text></g></svg>