<?xml version="1.0" encoding="UTF-8" standalone="no"?><svg xmlns="http://www.w3.org/2000/svg" xmlns:xlink="http://www.w3.org/1999/xlink" clip-rule="evenodd" stroke-miterlimit="10" viewBox="0 0 936 78"><desc>SVG generated by Keynote</desc><defs></defs><g transform="matrix(1.00, 0.00, -0.00, -1.00, 0.0, 78.0)"><text xml:space="preserve" font-family="ZapfDingbatsITC,Zapf Dingbats" font-size="19.2" fill="#919191" transform="matrix(1.00, 0.00, -0.00, -1.00, 0.0, 57.1)">â–</text><text xml:space="preserve" font-family="Palatino-Roman,Palatino" font-size="32.0" fill="#404040" transform="matrix(1.00, 0.00, -0.00, -1.00, 32.9, 52.1)">P</text><text xml:space="preserve" font-family="Palatino-Roman,Palatino" font-size="32.0" fill="#404040" transform="matrix(1.00, 0.00, -0.00, -1.00, 52.3, 52.1)">r</text><text xml:space="preserve" font-family="Palatino-Roman,Palatino" font-size="32.0" fill="#404040" transform="matrix(1.00, 0.00, -0.00, -1.00, 64.4, 52.1)">o</text><text xml:space="preserve" font-family="Palatino-Roman,Palatino" font-size="32.0" fill="#404040" transform="matrix(1.00, 0.00, -0.00, -1.00, 81.9, 52.1)">j</text><text xml:space="preserve" font-family="Palatino-Roman,Palatino" font-size="32.0" fill="#404040" transform="matrix(1.00, 0.00, -0.00, -1.00, 89.4, 52.1)">e</text><text xml:space="preserve" font-family="Palatino-Roman,Palatino" font-size="32.0" fill="#404040" transform="matrix(1.00, 0.00, -0.00, -1.00, 104.7, 52.1)">c</text><text xml:space="preserve" font-family="Palatino-Roman,Palatino" font-size="32.0" fill="#404040" transform="matrix(1.00, 0.00, -0.00, -1.00, 118.9, 52.1)">t</text><text xml:space="preserve" font-family="Palatino-Roman,Palatino" font-size="32.0" fill="#404040" transform="matrix(1.00, 0.00, -0.00, -1.00, 129.4, 52.1)"> </text><text xml:space="preserve" font-family="Palatino-Roman,Palatino" font-size="32.0" fill="#404040" transform="matrix(1.00, 0.00, -0.00, -1.00, 137.4, 52.1)">e</text><text xml:space="preserve" font-family="Palatino-Roman,Palatino" font-size="32.0" fill="#404040" transform="matrix(1.00, 0.00, -0.00, -1.00, 152.7, 52.1)">d</text><text xml:space="preserve" font-family="Palatino-Roman,Palatino" font-size="32.0" fill="#404040" transform="matrix(1.00, 0.00, -0.00, -1.00, 172.3, 52.1)">i</text><text xml:space="preserve" font-family="Palatino-Roman,Palatino" font-size="32.0" fill="#404040" transform="matrix(1.00, 0.00, -0.00, -1.00, 181.6, 52.1)">t</text><text xml:space="preserve" font-family="Palatino-Roman,Palatino" font-size="32.0" fill="#404040" transform="matrix(1.00, 0.00, -0.00, -1.00, 192.1, 52.1)">o</text><text xml:space="preserve" font-family="Palatino-Roman,Palatino" font-size="32.0" fill="#404040" transform="matrix(1.00, 0.00, -0.00, -1.00, 209.6, 52.1)">r</text><text xml:space="preserve" font-family="Palatino-Roman,Palatino" font-size="32.0" fill="#404040" transform="matrix(1.00, 0.00, -0.00, -1.00, 222.2, 52.1)"> </text><text xml:space="preserve" font-family="Palatino-Roman,Palatino" font-size="32.0" fill="#404040" transform="matrix(1.00, 0.00, -0.00, -1.00, 230.2, 52.1)">i</text><text xml:space="preserve" font-family="Palatino-Roman,Palatino" font-size="32.0" fill="#404040" transform="matrix(1.00, 0.00, -0.00, -1.00, 239.6, 52.1)">n</text><text xml:space="preserve" font-family="Palatino-Roman,Palatino" font-size="32.0" fill="#404040" transform="matrix(1.00, 0.00, -0.00, -1.00, 258.2, 52.1)">c</text><text xml:space="preserve" font-family="Palatino-Roman,Palatino" font-size="32.0" fill="#404040" transform="matrix(1.00, 0.00, -0.00, -1.00, 272.4, 52.1)">o</text><text xml:space="preserve" font-family="Palatino-Roman,Palatino" font-size="32.0" fill="#404040" transform="matrix(1.00, 0.00, -0.00, -1.00, 289.9, 52.1)">r</text><text xml:space="preserve" font-family="Palatino-Roman,Palatino" font-size="32.0" fill="#404040" transform="matrix(1.00, 0.00, -0.00, -1.00, 302.6, 52.1)">p</text><text xml:space="preserve" font-family="Palatino-Roman,Palatino" font-size="32.0" fill="#404040" transform="matrix(1.00, 0.00, -0.00, -1.00, 321.8, 52.1)">o</text><text xml:space="preserve" font-family="Palatino-Roman,Palatino" font-size="32.0" fill="#404040" transform="matrix(1.00, 0.00, -0.00, -1.00, 339.3, 52.1)">r</text><text xml:space="preserve" font-family="Palatino-Roman,Palatino" font-size="32.0" fill="#404040" transform="matrix(1.00, 0.00, -0.00, -1.00, 352.0, 52.1)">a</text><text xml:space="preserve" font-family="Palatino-Roman,Palatino" font-size="32.0" fill="#404040" transform="matrix(1.00, 0.00, -0.00, -1.00, 368.0, 52.1)">t</text><text xml:space="preserve" font-family="Palatino-Roman,Palatino" font-size="32.0" fill="#404040" transform="matrix(1.00, 0.00, -0.00, -1.00, 378.4, 52.1)">e</text><text xml:space="preserve" font-family="Palatino-Roman,Palatino" font-size="32.0" fill="#404040" transform="matrix(1.00, 0.00, -0.00, -1.00, 393.8, 52.1)">s</text><text xml:space="preserve" font-family="Palatino-Roman,Palatino" font-size="32.0" fill="#404040" transform="matrix(1.00, 0.00, -0.00, -1.00, 407.4, 52.1)"> </text><text xml:space="preserve" font-family="Palatino-Roman,Palatino" font-size="32.0" fill="#404040" transform="matrix(1.00, 0.00, -0.00, -1.00, 415.4, 52.1)">r</text><text xml:space="preserve" font-family="Palatino-Roman,Palatino" font-size="32.0" fill="#404040" transform="matrix(1.00, 0.00, -0.00, -1.00, 427.5, 52.1)">e</text><text xml:space="preserve" font-family="Palatino-Roman,Palatino" font-size="32.0" fill="#404040" transform="matrix(1.00, 0.00, -0.00, -1.00, 442.8, 52.1)">q</text><text xml:space="preserve" font-family="Palatino-Roman,Palatino" font-size="32.0" fill="#404040" transform="matrix(1.00, 0.00, -0.00, -1.00, 460.8, 52.1)">u</text><text xml:space="preserve" font-family="Palatino-Roman,Palatino" font-size="32.0" fill="#404040" transform="matrix(1.00, 0.00, -0.00, -1.00, 480.1, 52.1)">e</text><text xml:space="preserve" font-family="Palatino-Roman,Palatino" font-size="32.0" fill="#404040" transform="matrix(1.00, 0.00, -0.00, -1.00, 495.4, 52.1)">s</text><text xml:space="preserve" font-family="Palatino-Roman,Palatino" font-size="32.0" fill="#404040" transform="matrix(1.00, 0.00, -0.00, -1.00, 509.0, 52.1)">t</text><text xml:space="preserve" font-family="Palatino-Roman,Palatino" font-size="32.0" fill="#404040" transform="matrix(1.00, 0.00, -0.00, -1.00, 519.5, 52.1)"> </text><text xml:space="preserve" font-family="Palatino-Roman,Palatino" font-size="32.0" fill="#404040" transform="matrix(1.00, 0.00, -0.00, -1.00, 527.5, 52.1)">i</text><text xml:space="preserve" font-family="Palatino-Roman,Palatino" font-size="32.0" fill="#404040" transform="matrix(1.00, 0.00, -0.00, -1.00, 536.8, 52.1)">n</text><text xml:space="preserve" font-family="Palatino-Roman,Palatino" font-size="32.0" fill="#404040" transform="matrix(1.00, 0.00, -0.00, -1.00, 555.4, 52.1)">t</text><text xml:space="preserve" font-family="Palatino-Roman,Palatino" font-size="32.0" fill="#404040" transform="matrix(1.00, 0.00, -0.00, -1.00, 565.9, 52.1)">o</text><text xml:space="preserve" font-family="Palatino-Roman,Palatino" font-size="32.0" fill="#404040" transform="matrix(1.00, 0.00, -0.00, -1.00, 583.4, 52.1)"> </text><text xml:space="preserve" font-family="Palatino-Roman,Palatino" font-size="32.0" fill="#404040" transform="matrix(1.00, 0.00, -0.00, -1.00, 591.4, 52.1)">c</text><text xml:space="preserve" font-family="Palatino-Roman,Palatino" font-size="32.0" fill="#404040" transform="matrix(1.00, 0.00, -0.00, -1.00, 605.6, 52.1)">a</text><text xml:space="preserve" font-family="Palatino-Roman,Palatino" font-size="32.0" fill="#404040" transform="matrix(1.00, 0.00, -0.00, -1.00, 621.6, 52.1)">n</text><text xml:space="preserve" font-family="Palatino-Roman,Palatino" font-size="32.0" fill="#404040" transform="matrix(1.00, 0.00, -0.00, -1.00, 640.3, 52.1)">o</text><text xml:space="preserve" font-family="Palatino-Roman,Palatino" font-size="32.0" fill="#404040" transform="matrix(1.00, 0.00, -0.00, -1.00, 657.8, 52.1)">n</text><text xml:space="preserve" font-family="Palatino-Roman,Palatino" font-size="32.0" fill="#404040" transform="matrix(1.00, 0.00, -0.00, -1.00, 676.4, 52.1)">i</text><text xml:space="preserve" font-family="Palatino-Roman,Palatino" font-size="32.0" fill="#404040" transform="matrix(1.00, 0.00, -0.00, -1.00, 685.7, 52.1)">c</text><text xml:space="preserve" font-family="Palatino-Roman,Palatino" font-size="32.0" fill="#404040" transform="matrix(1.00, 0.00, -0.00, -1.00, 700.0, 52.1)">a</text><text xml:space="preserve" font-family="Palatino-Roman,Palatino" font-size="32.0" fill="#404040" transform="matrix(1.00, 0.00, -0.00, -1.00, 716.0, 52.1)">l</text><text xml:space="preserve" font-family="Palatino-Roman,Palatino" font-size="32.0" fill="#404040" transform="matrix(1.00, 0.00, -0.00, -1.00, 725.3, 52.1)"> </text><text xml:space="preserve" font-family="Palatino-Roman,Palatino" font-size="32.0" fill="#404040" transform="matrix(1.00, 0.00, -0.00, -1.00, 733.3, 52.1)">r</text><text xml:space="preserve" font-family="Palatino-Roman,Palatino" font-size="32.0" fill="#404040" transform="matrix(1.00, 0.00, -0.00, -1.00, 745.4, 52.1)">e</text><text xml:space="preserve" font-family="Palatino-Roman,Palatino" font-size="32.0" fill="#404040" transform="matrix(1.00, 0.00, -0.00, -1.00, 760.7, 52.1)">p</text><text xml:space="preserve" font-family="Palatino-Roman,Palatino" font-size="32.0" fill="#404040" transform="matrix(1.00, 0.00, -0.00, -1.00, 780.0, 52.1)">o</text><text xml:space="preserve" font-family="Palatino-Roman,Palatino" font-size="32.0" fill="#404040" transform="matrix(1.00, 0.00, -0.00, -1.00, 797.5, 52.1)">s</text><text xml:space="preserve" font-family="Palatino-Roman,Palatino" font-size="32.0" fill="#404040" transform="matrix(1.00, 0.00, -0.00, -1.00, 811.1, 52.1)">i</text><text xml:space="preserve" font-family="Palatino-Roman,Palatino" font-size="32.0" fill="#404040" transform="matrix(1.00, 0.00, -0.00, -1.00, 820.4, 52.1)">t</text><text xml:space="preserve" font-family="Palatino-Roman,Palatino" font-size="32.0" fill="#404040" transform="matrix(1.00, 0.00, -0.00, -1.00, 830.8, 52.1)">o</text><text xml:space="preserve" font-family="Palatino-Roman,Palatino" font-size="32.0" fill="#404040" transform="matrix(1.00, 0.00, -0.00, -1.00, 848.3, 52.1)">r</text><text xml:space="preserve" font-family="Palatino-Roman,Palatino" font-size="32.0" fill="#404040" transform="matrix(1.00, 0.00, -0.00, -1.00, 861.0, 52.1)">y</text><text xml:space="preserve" font-family="Palatino-Roman,Palatino" font-size="32.0" fill="#404040" transform="matrix(1.00, 0.00, -0.00, -1.00, 878.8, 52.1)"> </text><text xml:space="preserve" font-family="Palatino-Roman,Palatino" font-size="32.0" fill="#404040" transform="matrix(1.00, 0.00, -0.00, -1.00, 886.8, 52.1)">(</text><text xml:space="preserve" font-family="Palatino-Italic,Palatino" font-style="italic" font-size="32.0" fill="#404040" transform="matrix(1.00, 0.00, -0.00, -1.00, 897.5, 52.1)">g</text><text xml:space="preserve" font-family="Palatino-Italic,Palatino" font-style="italic" font-size="32.0" fill="#404040" transform="matrix(1.00, 0.00, -0.00, -1.00, 913.5, 52.1)">i</text><text xml:space="preserve" font-family="Palatino-Italic,Palatino" font-style="italic" font-size="32.0" fill="#404040" transform="matrix(1.00, 0.00, -0.00, -1.00, 922.4, 52.1)">t</text><text xml:space="preserve" font-family="Palatino-Italic,Palatino" font-style="italic" font-size="32.0" fill="#404040" transform="matrix(1.00, 0.00, -0.00, -1.00, 933.1, 52.1)"> </text><text xml:space="preserve" font-family="Palatino-Italic,Palatino" font-style="italic" font-size="32.0" fill="#404040" transform="matrix(1.00, 0.00, -0.00, -1.00, 32.9, 10.1)">p</text><text xml:space="preserve" font-family="Palatino-Italic,Palatino" font-style="italic" font-size="32.0" fill="#404040" transform="matrix(1.00, 0.00, -0.00, -1.00, 49.0, 10.1)">u</text><text xml:space="preserve" font-family="Palatino-Italic,Palatino" font-style="italic" font-size="32.0" fill="#404040" transform="matrix(1.00, 0.00, -0.00, -1.00, 66.8, 10.1)">l</text><text xml:space="preserve" font-family="Palatino-Italic,Palatino" font-style="italic" font-size="32.0" fill="#404040" transform="matrix(1.00, 0.00, -0.00, -1.00, 75.7, 10.1)">l</text><text xml:space="preserve" font-family="Palatino-Italic,Palatino" font-style="italic" font-size="32.0" fill="#404040" transform="matrix(1.00, 0.00, -0.00, -1.00, 84.6, 10.1)">)</text></g></svg>