<?xml version="1.0" encoding="UTF-8" standalone="no"?><svg xmlns="http://www.w3.org/2000/svg" xmlns:xlink="http://www.w3.org/1999/xlink" clip-rule="evenodd" stroke-miterlimit="10" viewBox="0 0 540 40"><desc>SVG generated by Keynote</desc><defs></defs><g transform="matrix(1.00, 0.00, -0.00, -1.00, 0.0, 40.0)"><text xml:space="preserve" font-family="ZapfDingbatsITC,Zapf Dingbats" font-size="21.6" fill="#919191" transform="matrix(1.00, 0.00, -0.00, -1.00, 0.0, 16.8)">â–</text><text xml:space="preserve" font-family="Palatino-Roman,Palatino" font-size="36.0" fill="#404040" transform="matrix(1.00, 0.00, -0.00, -1.00, 37.0, 11.0)">R</text><text xml:space="preserve" font-family="Palatino-Roman,Palatino" font-size="36.0" fill="#404040" transform="matrix(1.00, 0.00, -0.00, -1.00, 61.0, 11.0)">D</text><text xml:space="preserve" font-family="Palatino-Roman,Palatino" font-size="36.0" fill="#404040" transform="matrix(1.00, 0.00, -0.00, -1.00, 88.9, 11.0)">A</text><text xml:space="preserve" font-family="Palatino-Roman,Palatino" font-size="36.0" fill="#404040" transform="matrix(1.00, 0.00, -0.00, -1.00, 114.9, 11.0)"> </text><text xml:space="preserve" font-family="Palatino-Roman,Palatino" font-size="36.0" fill="#404040" transform="matrix(1.00, 0.00, -0.00, -1.00, 123.9, 11.0)">M</text><text xml:space="preserve" font-family="Palatino-Roman,Palatino" font-size="36.0" fill="#404040" transform="matrix(1.00, 0.00, -0.00, -1.00, 158.0, 11.0)">e</text><text xml:space="preserve" font-family="Palatino-Roman,Palatino" font-size="36.0" fill="#404040" transform="matrix(1.00, 0.00, -0.00, -1.00, 175.2, 11.0)">e</text><text xml:space="preserve" font-family="Palatino-Roman,Palatino" font-size="36.0" fill="#404040" transform="matrix(1.00, 0.00, -0.00, -1.00, 192.5, 11.0)">t</text><text xml:space="preserve" font-family="Palatino-Roman,Palatino" font-size="36.0" fill="#404040" transform="matrix(1.00, 0.00, -0.00, -1.00, 204.2, 11.0)">i</text><text xml:space="preserve" font-family="Palatino-Roman,Palatino" font-size="36.0" fill="#404040" transform="matrix(1.00, 0.00, -0.00, -1.00, 214.7, 11.0)">n</text><text xml:space="preserve" font-family="Palatino-Roman,Palatino" font-size="36.0" fill="#404040" transform="matrix(1.00, 0.00, -0.00, -1.00, 235.6, 11.0)">g</text><text xml:space="preserve" font-family="Palatino-Roman,Palatino" font-size="36.0" fill="#404040" transform="matrix(1.00, 0.00, -0.00, -1.00, 255.7, 11.0)"> </text><text xml:space="preserve" font-family="Palatino-Roman,Palatino" font-size="36.0" fill="#404040" transform="matrix(1.00, 0.00, -0.00, -1.00, 264.7, 11.0)">(</text><text xml:space="preserve" font-family="Palatino-Roman,Palatino" font-size="36.0" fill="#404040" transform="matrix(1.00, 0.00, -0.00, -1.00, 276.7, 11.0)">S</text><text xml:space="preserve" font-family="Palatino-Roman,Palatino" font-size="36.0" fill="#404040" transform="matrix(1.00, 0.00, -0.00, -1.00, 295.5, 11.0)">e</text><text xml:space="preserve" font-family="Palatino-Roman,Palatino" font-size="36.0" fill="#404040" transform="matrix(1.00, 0.00, -0.00, -1.00, 312.8, 11.0)">p</text><text xml:space="preserve" font-family="Palatino-Roman,Palatino" font-size="36.0" fill="#404040" transform="matrix(1.00, 0.00, -0.00, -1.00, 334.4, 11.0)">t</text><text xml:space="preserve" font-family="Palatino-Roman,Palatino" font-size="36.0" fill="#404040" transform="matrix(1.00, 0.00, -0.00, -1.00, 346.2, 11.0)">e</text><text xml:space="preserve" font-family="Palatino-Roman,Palatino" font-size="36.0" fill="#404040" transform="matrix(1.00, 0.00, -0.00, -1.00, 363.4, 11.0)">m</text><text xml:space="preserve" font-family="Palatino-Roman,Palatino" font-size="36.0" fill="#404040" transform="matrix(1.00, 0.00, -0.00, -1.00, 395.2, 11.0)">b</text><text xml:space="preserve" font-family="Palatino-Roman,Palatino" font-size="36.0" fill="#404040" transform="matrix(1.00, 0.00, -0.00, -1.00, 415.1, 11.0)">e</text><text xml:space="preserve" font-family="Palatino-Roman,Palatino" font-size="36.0" fill="#404040" transform="matrix(1.00, 0.00, -0.00, -1.00, 432.4, 11.0)">r</text><text xml:space="preserve" font-family="Palatino-Roman,Palatino" font-size="36.0" fill="#404040" transform="matrix(1.00, 0.00, -0.00, -1.00, 446.6, 11.0)"> </text><text xml:space="preserve" font-family="Palatino-Roman,Palatino" font-size="36.0" fill="#404040" transform="matrix(1.00, 0.00, -0.00, -1.00, 455.6, 11.0)">2</text><text xml:space="preserve" font-family="Palatino-Roman,Palatino" font-size="36.0" fill="#404040" transform="matrix(1.00, 0.00, -0.00, -1.00, 473.6, 11.0)">0</text><text xml:space="preserve" font-family="Palatino-Roman,Palatino" font-size="36.0" fill="#404040" transform="matrix(1.00, 0.00, -0.00, -1.00, 491.6, 11.0)">1</text><text xml:space="preserve" font-family="Palatino-Roman,Palatino" font-size="36.0" fill="#404040" transform="matrix(1.00, 0.00, -0.00, -1.00, 509.6, 11.0)">3</text><text xml:space="preserve" font-family="Palatino-Roman,Palatino" font-size="36.0" fill="#404040" transform="matrix(1.00, 0.00, -0.00, -1.00, 527.6, 11.0)">)</text></g></svg>